<?xml version="1.0" encoding="UTF-8" standalone="no"?>
<!DOCTYPE svg PUBLIC "-//W3C//DTD SVG 1.1//EN"
 "http://www.w3.org/Graphics/SVG/1.1/DTD/svg11.dtd">
<!-- Generated by graphviz version 2.40.1 (20161225.0304)
 -->
<!-- Title: move_base Pages: 1 -->
<svg width="518pt" height="188pt"
 viewBox="0.00 0.00 518.46 188.00" xmlns="http://www.w3.org/2000/svg" xmlns:xlink="http://www.w3.org/1999/xlink">
<g id="graph0" class="graph" transform="scale(1 1) rotate(0) translate(4 184)">
<title>move_base</title>
<polygon fill="#ffffff" stroke="transparent" points="-4,4 -4,-184 514.4644,-184 514.4644,4 -4,4"/>
<!-- move_base -->
<g id="node1" class="node">
<title>move_base</title>
<polygon fill="#00ffff" stroke="#000000" points="256.5387,-154.5442 256.5387,-169.4558 231.9654,-180 197.2136,-180 172.6403,-169.4558 172.6403,-154.5442 197.2136,-144 231.9654,-144 256.5387,-154.5442"/>
<text text-anchor="middle" x="214.5895" y="-158.7" font-family="Times,serif" font-size="11.00" fill="#000000">move_base</text>
</g>
<!-- navigate -->
<g id="node2" class="node">
<title>navigate</title>
<ellipse fill="#c0c0c0" stroke="#000000" cx="173.5895" cy="-90" rx="31.2042" ry="18"/>
<text text-anchor="middle" x="173.5895" y="-86.7" font-family="Times,serif" font-size="11.00" fill="#000000">navigate</text>
</g>
<!-- move_base&#45;&gt;navigate -->
<g id="edge1" class="edge">
<title>move_base&#45;&gt;navigate</title>
<path fill="none" stroke="#000000" d="M204.2434,-143.8314C199.4752,-135.4579 193.7265,-125.3626 188.502,-116.1878"/>
<polygon fill="#000000" stroke="#000000" points="191.4978,-114.3756 183.5079,-107.4177 185.4149,-117.8395 191.4978,-114.3756"/>
</g>
<!-- Recover -->
<g id="node3" class="node">
<title>Recover</title>
<polygon fill="#00ffff" stroke="#000000" points="290.1791,-82.5442 290.1791,-97.4558 270.5027,-108 242.6762,-108 222.9999,-97.4558 222.9999,-82.5442 242.6762,-72 270.5027,-72 290.1791,-82.5442"/>
<text text-anchor="middle" x="256.5895" y="-86.7" font-family="Times,serif" font-size="11.00" fill="#000000">Recover</text>
</g>
<!-- move_base&#45;&gt;Recover -->
<g id="edge2" class="edge">
<title>move_base&#45;&gt;Recover</title>
<path fill="none" stroke="#000000" d="M225.1878,-143.8314C229.8772,-135.7925 235.4923,-126.1666 240.6693,-117.2918"/>
<polygon fill="#000000" stroke="#000000" points="243.8329,-118.8146 245.8484,-108.4133 237.7864,-115.2875 243.8329,-118.8146"/>
</g>
<!-- Conservative Reset -->
<g id="node4" class="node">
<title>Conservative Reset</title>
<ellipse fill="#c0c0c0" stroke="#000000" cx="59.5895" cy="-18" rx="59.6791" ry="18"/>
<text text-anchor="middle" x="59.5895" y="-14.7" font-family="Times,serif" font-size="11.00" fill="#000000">Conservative Reset</text>
</g>
<!-- Recover&#45;&gt;Conservative Reset -->
<g id="edge3" class="edge">
<title>Recover&#45;&gt;Conservative Reset</title>
<path fill="none" stroke="#000000" d="M229.851,-78.5194C224.4888,-76.2985 218.8776,-74.0319 213.5895,-72 178.9863,-58.704 139.5267,-44.8934 109.2138,-34.5672"/>
<polygon fill="#000000" stroke="#000000" points="110.3054,-31.2417 99.7111,-31.3421 108.0557,-37.8703 110.3054,-31.2417"/>
</g>
<!-- Clearing Rotation -->
<g id="node5" class="node">
<title>Clearing Rotation</title>
<ellipse fill="#c0c0c0" stroke="#000000" cx="192.5895" cy="-18" rx="55.7749" ry="18"/>
<text text-anchor="middle" x="192.5895" y="-14.7" font-family="Times,serif" font-size="11.00" fill="#000000">Clearing Rotation</text>
</g>
<!-- Recover&#45;&gt;Clearing Rotation -->
<g id="edge4" class="edge">
<title>Recover&#45;&gt;Clearing Rotation</title>
<path fill="none" stroke="#000000" d="M241.0969,-72.5708C233.2154,-63.7041 223.4942,-52.7678 214.8289,-43.0194"/>
<polygon fill="#000000" stroke="#000000" points="217.4209,-40.6671 208.1612,-35.5182 212.189,-45.3176 217.4209,-40.6671"/>
</g>
<!-- Aggressive Reset -->
<g id="node6" class="node">
<title>Aggressive Reset</title>
<ellipse fill="#c0c0c0" stroke="#000000" cx="320.5895" cy="-18" rx="54.612" ry="18"/>
<text text-anchor="middle" x="320.5895" y="-14.7" font-family="Times,serif" font-size="11.00" fill="#000000">Aggressive Reset</text>
</g>
<!-- Recover&#45;&gt;Aggressive Reset -->
<g id="edge5" class="edge">
<title>Recover&#45;&gt;Aggressive Reset</title>
<path fill="none" stroke="#000000" d="M272.0821,-72.5708C279.9636,-63.7041 289.6848,-52.7678 298.35,-43.0194"/>
<polygon fill="#000000" stroke="#000000" points="300.99,-45.3176 305.0177,-35.5182 295.7581,-40.6671 300.99,-45.3176"/>
</g>
<!-- Clearing Rotation* -->
<g id="node7" class="node">
<title>Clearing Rotation*</title>
<ellipse fill="#c0c0c0" stroke="#000000" cx="451.5895" cy="-18" rx="58.7501" ry="18"/>
<text text-anchor="middle" x="451.5895" y="-14.7" font-family="Times,serif" font-size="11.00" fill="#000000">Clearing Rotation*</text>
</g>
<!-- Recover&#45;&gt;Clearing Rotation* -->
<g id="edge6" class="edge">
<title>Recover&#45;&gt;Clearing Rotation*</title>
<path fill="none" stroke="#000000" d="M284.9442,-79.5306C316.167,-68.0021 366.8809,-49.277 404.1743,-35.5071"/>
<polygon fill="#000000" stroke="#000000" points="405.6585,-38.6901 413.8272,-31.943 403.2339,-32.1235 405.6585,-38.6901"/>
</g>
</g>
</svg>
